<svg xmlns="http://www.w3.org/2000/svg" width="430" height="430" viewBox="0 0 430 430" fill="none"><path d="M60 70H370V270H60V70Z" fill="#4BB3FD"></path><g style="mix-blend-mode:multiply" opacity="0.5"><path d="M65 75H85V265H65V75Z" fill="#4BB3FD"></path></g><path fill-rule="evenodd" clip-rule="evenodd" d="M45 265V295C45 306.046 53.9543 315 65 315H365C376.046 315 385 306.046 385 295V265H45Z" fill="#EBE6EF"></path><g style="mix-blend-mode:multiply" opacity="0.5"><path d="M45 295V265H65V295C65 306.046 73.9543 315 85 315H65C53.9543 315 45 306.046 45 295Z" fill="#EBE6EF"></path></g><path fill-rule="evenodd" clip-rule="evenodd" d="M45 75V265H385V75C385 63.9543 376.046 55 365 55H65C53.9543 55 45 63.9543 45 75ZM365 265V75L65 75V265H215H365Z" fill="#3A3347"></path><g style="mix-blend-mode:multiply" opacity="0.5"><path d="M45 265V75C45 63.9543 53.9543 55 65 55H85C73.9543 55 65 63.9543 65 75V265H45Z" fill="#3A3347"></path></g><path d="M245 315L250 375H180L185 315H245Z" fill="#EBE6EF"></path><g style="mix-blend-mode:multiply" opacity="0.6"><path d="M198.75 330L195 375H180L185 315H245L246.25 330H198.75Z" fill="#EBE6EF"></path></g><path d="M185 315L180 375M245 315L250 375" stroke="#121331" stroke-width="7" stroke-linecap="round" stroke-linejoin="round"></path><path d="M285 375H145" stroke="#121331" stroke-width="7" stroke-linecap="round"></path><circle cx="215" cy="290" r="10" fill="#121331"></circle><path d="M385 265H45" stroke="#121331" stroke-width="7" stroke-linecap="round"></path><rect x="45" y="55" width="340" height="260" rx="20" stroke="#121331" stroke-width="7"></rect></svg>