<svg xmlns="http://www.w3.org/2000/svg" xmlns:xlink="http://www.w3.org/1999/xlink" viewBox="0 0 430 430" width="430" height="430" preserveAspectRatio="xMidYMid meet" style="width: 100%; height: 100%; transform: translate3d(0px, 0px, 0px); content-visibility: visible;"><defs><clipPath id="__lottie_element_59"><rect width="430" height="430" x="0" y="0"></rect></clipPath><clipPath id="__lottie_element_61"><path d="M0,0 L430,0 L430,430 L0,430z"></path></clipPath><mask id="__lottie_element_78"><rect fill="#ffffff" width="430" height="430" transform="matrix(1,0,0,1,-183.00001525878906,-202.99998474121094)"></rect><path fill="#000000" clip-rule="nonzero" d=" M-81.00900268554688,-209.41299438476562 C-81.00900268554688,-209.41299438476562 -135.22799682617188,-178.73300170898438 -135.22799682617188,-178.73300170898438 C-135.22799682617188,-178.73300170898438 57.81700134277344,158.77699279785156 57.81700134277344,158.77699279785156 C57.81700134277344,158.77699279785156 112.03600311279297,128.0970001220703 112.03600311279297,128.0970001220703 C112.03600311279297,128.0970001220703 -81.00900268554688,-209.41299438476562 -81.00900268554688,-209.41299438476562" fill-opacity="1"></path></mask></defs><g clip-path="url(#__lottie_element_59)"><g clip-path="url(#__lottie_element_61)" transform="matrix(1,0,0,1,0,0)" opacity="1" style="display: block;"><g transform="matrix(1,-0.0000016370382809327566,0.0000016370382809327566,1,182.99981689453125,203.0001220703125)" opacity="1" style="display: block;"><g opacity="1" transform="matrix(1,0,0,1,0,0)"><path class="secondary" fill="rgb(249,201,192)" fill-opacity="1" d=" M0.7120000123977661,4.204999923706055 C0.7120000123977661,4.204999923706055 -10.708000183105469,108.18399810791016 -10.708000183105469,108.18399810791016 C-10.708000183105469,108.18399810791016 45.19200134277344,159.88900756835938 45.19200134277344,159.88900756835938 C74.68699645996094,140.1649932861328 133.66700744628906,100.70800018310547 133.66700744628906,100.70800018310547 C133.66700744628906,100.70800018310547 122.87300109863281,67.16400146484375 122.87300109863281,67.16400146484375 C122.87300109863281,67.16400146484375 107.32599639892578,11.73900032043457 107.32599639892578,11.73900032043457 C105.69000244140625,5.916999816894531 101.74099731445312,1.3380000591278076 96.7509994506836,-1.284999966621399 C96.74199676513672,-1.3029999732971191 96.70500183105469,-1.312999963760376 96.70500183105469,-1.312999963760376 C96.70500183105469,-1.312999963760376 0.7120000123977661,4.204999923706055 0.7120000123977661,4.204999923706055z"></path></g></g><g transform="matrix(1,-0.0000016370382809327566,0.0000016370382809327566,1,182.99981689453125,203.0001220703125)" opacity="0.5" style="mix-blend-mode: multiply; display: block;"><g opacity="1" transform="matrix(1,0,0,1,0,0)"><path class="secondary" fill="rgb(249,201,192)" fill-opacity="1" d=" M-2.7880001068115234,88.70500183105469 C-2.7880001068115234,88.70500183105469 -10.708000183105469,108.18399810791016 -10.708000183105469,108.18399810791016 C-10.708000183105469,108.18399810791016 45.19200134277344,159.88900756835938 45.19200134277344,159.88900756835938 C47.5,159 59.41699981689453,149.95799255371094 59.41699981689453,149.95799255371094 C59.41699981689453,149.95799255371094 -2.7880001068115234,88.70500183105469 -2.7880001068115234,88.70500183105469z"></path></g></g><g transform="matrix(1,-0.0000016370382809327566,0.0000016370382809327566,1,182.99981689453125,203.0001220703125)" opacity="1" style="display: block;"><g opacity="1" transform="matrix(1,0,0,1,0,0)"><path stroke-linecap="round" stroke-linejoin="round" fill-opacity="0" class="primary" stroke="rgb(18,19,49)" stroke-opacity="1" stroke-width="7" d=" M0.7120000123977661,4.204999923706055 C0.7120000123977661,4.204999923706055 -10.708000183105469,108.18399810791016 -10.708000183105469,108.18399810791016 C-10.708000183105469,108.18399810791016 45.19200134277344,159.88900756835938 45.19200134277344,159.88900756835938 C74.68699645996094,140.1649932861328 133.66700744628906,100.70800018310547 133.66700744628906,100.70800018310547 C133.66700744628906,100.70800018310547 122.87300109863281,67.16400146484375 122.87300109863281,67.16400146484375 C122.87300109863281,67.16400146484375 107.32599639892578,11.73900032043457 107.32599639892578,11.73900032043457 C105.69000244140625,5.916999816894531 101.74099731445312,1.3380000591278076 96.7509994506836,-1.284999966621399 C96.74199676513672,-1.3029999732971191 96.70500183105469,-1.312999963760376 96.70500183105469,-1.312999963760376 C96.70500183105469,-1.312999963760376 0.7120000123977661,4.204999923706055 0.7120000123977661,4.204999923706055z"></path></g></g><g transform="matrix(1,-0.0000016370382809327566,0.0000016370382809327566,1,182.99981689453125,203.0001220703125)" opacity="1" style="display: block;"><g opacity="1" transform="matrix(1,0,0,1,0,0)"><path class="tertiary" fill="rgb(75,179,253)" fill-opacity="1" d=" M41.125,-160.1199951171875 C41.125,-160.1199951171875 -64.89900207519531,-160.1199951171875 -64.89900207519531,-160.1199951171875 C-77.60399627685547,-160.1199951171875 -87.98699951171875,-149.7270050048828 -87.98699951171875,-137.03199768066406 C-87.98699951171875,-137.03199768066406 -87.98699951171875,85.09700012207031 -87.98699951171875,85.09700012207031 C-87.98699951171875,97.802001953125 -77.60399627685547,108.18399810791016 -64.89900207519531,108.18399810791016 C-64.89900207519531,108.18399810791016 41.125,108.18399810791016 41.125,108.18399810791016 C53.83000183105469,108.18399810791016 64.21199798583984,97.802001953125 64.21199798583984,85.09700012207031 C64.21199798583984,85.09700012207031 64.21199798583984,-137.03199768066406 64.21199798583984,-137.03199768066406 C64.21199798583984,-149.7270050048828 53.83000183105469,-160.1199951171875 41.125,-160.1199951171875z"></path></g></g><g mask="url(#__lottie_element_78)" transform="matrix(1,-0.0000016370382809327566,0.0000016370382809327566,1,182.99981689453125,203.0001220703125)" opacity="0.5" style="mix-blend-mode: multiply; display: block;"><g opacity="1" transform="matrix(1,0,0,1,0,0)"><path class="tertiary" fill="rgb(75,179,253)" fill-opacity="1" d=" M41.125,-160.1199951171875 C41.125,-160.1199951171875 -64.89900207519531,-160.1199951171875 -64.89900207519531,-160.1199951171875 C-77.60399627685547,-160.1199951171875 -87.98699951171875,-149.7270050048828 -87.98699951171875,-137.03199768066406 C-87.98699951171875,-137.03199768066406 -87.98699951171875,85.09700012207031 -87.98699951171875,85.09700012207031 C-87.98699951171875,97.802001953125 -77.60399627685547,108.18399810791016 -64.89900207519531,108.18399810791016 C-64.89900207519531,108.18399810791016 41.125,108.18399810791016 41.125,108.18399810791016 C53.83000183105469,108.18399810791016 64.21199798583984,97.802001953125 64.21199798583984,85.09700012207031 C64.21199798583984,85.09700012207031 64.21199798583984,-137.03199768066406 64.21199798583984,-137.03199768066406 C64.21199798583984,-149.7270050048828 53.83000183105469,-160.1199951171875 41.125,-160.1199951171875z"></path></g></g><g transform="matrix(1,-0.0000016370382809327566,0.0000016370382809327566,1,182.99981689453125,203.0001220703125)" opacity="1" style="display: block;"><g opacity="1" transform="matrix(1,0,0,1,0,0)"><path stroke-linecap="round" stroke-linejoin="round" fill-opacity="0" class="primary" stroke="rgb(18,19,49)" stroke-opacity="1" stroke-width="7" d=" M41.125,-160.1199951171875 C41.125,-160.1199951171875 -64.89900207519531,-160.1199951171875 -64.89900207519531,-160.1199951171875 C-77.60399627685547,-160.1199951171875 -87.98699951171875,-149.7270050048828 -87.98699951171875,-137.03199768066406 C-87.98699951171875,-137.03199768066406 -87.98699951171875,85.09700012207031 -87.98699951171875,85.09700012207031 C-87.98699951171875,97.802001953125 -77.60399627685547,108.18399810791016 -64.89900207519531,108.18399810791016 C-64.89900207519531,108.18399810791016 41.125,108.18399810791016 41.125,108.18399810791016 C53.83000183105469,108.18399810791016 64.21199798583984,97.802001953125 64.21199798583984,85.09700012207031 C64.21199798583984,85.09700012207031 64.21199798583984,-137.03199768066406 64.21199798583984,-137.03199768066406 C64.21199798583984,-149.7270050048828 53.83000183105469,-160.1199951171875 41.125,-160.1199951171875z"></path></g></g><g transform="matrix(1,-0.0000016370382809327566,0.0000016370382809327566,1,182.99981689453125,203.0001220703125)" opacity="1" style="mix-blend-mode: multiply; display: block;"><g opacity="1" transform="matrix(1,0,0,1,0,0)"><path stroke-linecap="round" stroke-linejoin="round" fill-opacity="0" class="primary" stroke="rgb(18,19,49)" stroke-opacity="1" stroke-width="7" d=" M7.441999912261963,-133.01100158691406 C7.441999912261963,-133.01100158691406 -31.215999603271484,-133.01100158691406 -31.215999603271484,-133.01100158691406"></path></g></g><g transform="matrix(1,-0.0000016370382809327566,0.0000016370382809327566,1,281.2740478515625,346.1209716796875)" opacity="1" style="display: block;"><g opacity="1" transform="matrix(1,0,0,1,0,0)"><path class="quaternary" fill="rgb(235,230,239)" fill-opacity="1" d=" M35.814998626708984,-42.4640007019043 C35.814998626708984,-42.4640007019043 52.143001556396484,-18.066999435424805 52.143001556396484,-18.066999435424805 C53.064998626708984,-16.690000534057617 52.69599914550781,-14.82800006866455 51.319000244140625,-13.906000137329102 C51.319000244140625,-13.906000137329102 -32.143001556396484,41.957000732421875 -32.143001556396484,41.957000732421875 C-33.52000045776367,42.87900161743164 -35.38199996948242,42.50899887084961 -36.30400085449219,41.13199996948242 C-36.30400085449219,41.13199996948242 -52.6510009765625,16.70800018310547 -52.6510009765625,16.70800018310547 C-52.6510009765625,16.70800018310547 35.814998626708984,-42.4640007019043 35.814998626708984,-42.4640007019043z"></path></g></g><g transform="matrix(1,-0.0000016370382809327566,0.0000016370382809327566,1,281.2740478515625,346.1209716796875)" opacity="0.5" style="mix-blend-mode: multiply; display: block;"><g opacity="1" transform="matrix(1,0,0,1,0,0)"><path class="quaternary" fill="rgb(235,230,239)" fill-opacity="1" d=" M-39.24700164794922,6.785999774932861 C-39.24700164794922,6.785999774932861 -20.791000366210938,34.05400085449219 -20.791000366210938,34.05400085449219 C-20.809999465942383,34.0260009765625 -32.143001556396484,41.957000732421875 -32.143001556396484,41.957000732421875 C-33.52000045776367,42.87900161743164 -35.38199996948242,42.50899887084961 -36.30400085449219,41.13199996948242 C-36.30400085449219,41.13199996948242 -52.9630012512207,16.20800018310547 -52.9630012512207,16.20800018310547 C-52.9630012512207,16.20800018310547 -39.24700164794922,6.785999774932861 -39.24700164794922,6.785999774932861z"></path></g></g><g transform="matrix(1,-0.0000016370382809327566,0.0000016370382809327566,1,281.2740478515625,346.1209716796875)" opacity="1" style="display: block;"><g opacity="1" transform="matrix(1,0,0,1,0,0)"><path stroke-linecap="round" stroke-linejoin="round" fill-opacity="0" class="primary" stroke="rgb(18,19,49)" stroke-opacity="1" stroke-width="7" d=" M35.814998626708984,-42.4640007019043 C35.814998626708984,-42.4640007019043 52.143001556396484,-18.066999435424805 52.143001556396484,-18.066999435424805 C53.064998626708984,-16.690000534057617 52.69599914550781,-14.82800006866455 51.319000244140625,-13.906000137329102 C51.319000244140625,-13.906000137329102 -32.143001556396484,41.957000732421875 -32.143001556396484,41.957000732421875 C-33.52000045776367,42.87900161743164 -35.38199996948242,42.50899887084961 -36.30400085449219,41.13199996948242 C-36.30400085449219,41.13199996948242 -52.6510009765625,16.70800018310547 -52.6510009765625,16.70800018310547 C-52.6510009765625,16.70800018310547 35.814998626708984,-42.4640007019043 35.814998626708984,-42.4640007019043z"></path></g></g><g transform="matrix(1,-0.0000016370382809327566,0.0000016370382809327566,1,214.9998321533203,215.0000762939453)" opacity="1" style="display: block;"><g opacity="1" transform="matrix(1,0,0,1,0,0)"><path class="secondary" fill="rgb(249,201,192)" fill-opacity="1" d=" M-20.3439998626709,-36.85900115966797 C-24.781999588012695,-34.60900115966797 -30.952999114990234,-27.202999114990234 -30.952999114990234,-20.202999114990234 C-30.952999114990234,-15.20300006866455 -30.266000747680664,-3.796999931335449 -19.266000747680664,0.703000009059906 C-5.941999912261963,6.1539998054504395 24,15.5 36.5,20 C70.75,25.75 70,-12.125 61.75,-14.875 C53.5,-17.625 12.906000137329102,-33.10900115966797 2.6559998989105225,-36.60900115966797 C-13.138999938964844,-42.00199890136719 -17.531999588012695,-38.17100143432617 -20.3439998626709,-36.85900115966797z"></path></g><g opacity="0.5" transform="matrix(1,0,0,1,0,0)" style="mix-blend-mode: multiply;"><path class="secondary" fill="rgb(249,201,192)" fill-opacity="1" d=" M-20.3439998626709,-36.85900115966797 C-24.781999588012695,-34.48400115966797 -30.952999114990234,-27.202999114990234 -30.952999114990234,-20.202999114990234 C-30.952999114990234,-15.20300006866455 -30.266000747680664,-3.796999931335449 -19.266000747680664,0.703000009059906 C-5.941999912261963,6.1539998054504395 24,15.5 36.5,20 C36.5,9.25 27.5,-1.75 19.25,-4.5 C11,-7.25 5.234000205993652,-9.95300006866455 -5.015999794006348,-13.45300006866455 C-20.81100082397461,-18.84600067138672 -20.0939998626709,-31.608999252319336 -20.3439998626709,-36.85900115966797z"></path></g></g><g transform="matrix(1,-0.0000016370382809327566,0.0000016370382809327566,1,214.9998321533203,215.0000762939453)" opacity="1" style="display: block;"><g opacity="1" transform="matrix(1,0,0,1,0,0)"><path stroke-linecap="round" stroke-linejoin="round" fill-opacity="0" class="primary" stroke="rgb(18,19,49)" stroke-opacity="1" stroke-width="7" d=" M65.41999816894531,-12.788000106811523 C64.7770004272461,-13.376999855041504 64.0510025024414,-13.831000328063965 63.25,-14.125 C55.084999084472656,-17.118999481201172 12.906000137329102,-33.10900115966797 2.6559998989105225,-36.60900115966797 C-13.138999938964844,-42.00199890136719 -17.531999588012695,-38.17100143432617 -20.3439998626709,-36.85900115966797 C-20.3439998626709,-36.85900115966797 -20.3439998626709,-36.85900115966797 -20.3439998626709,-36.85900115966797 C-24.781999588012695,-34.60900115966797 -30.952999114990234,-27.202999114990234 -30.952999114990234,-20.202999114990234 C-30.952999114990234,-15.20300006866455 -30.266000747680664,-3.796999931335449 -19.266000747680664,0.703000009059906 C-7.14900016784668,5.659999847412109 18.709999084472656,13.838000297546387 32.698001861572266,18.663999557495117"></path></g></g></g></g></svg>