<svg xmlns="http://www.w3.org/2000/svg" xmlns:xlink="http://www.w3.org/1999/xlink" viewBox="0 0 430 430" width="430" height="430" preserveAspectRatio="xMidYMid meet" style="width: 100%; height: 100%; transform: translate3d(0px, 0px, 0px); content-visibility: visible;"><defs><clipPath id="__lottie_element_59"><rect width="430" height="430" x="0" y="0"></rect></clipPath><clipPath id="__lottie_element_61"><path d="M0,0 L430,0 L430,430 L0,430z"></path></clipPath></defs><g clip-path="url(#__lottie_element_59)"><g clip-path="url(#__lottie_element_61)" transform="matrix(1,0,0,1,0,0)" opacity="1" style="display: block;"><g transform="matrix(1,0,0,1,225,235)" opacity="1" style="display: block;"><g opacity="1" transform="matrix(1,0,0,1,0,0)"><path stroke-linecap="round" stroke-linejoin="round" fill-opacity="0" class="secondary" stroke="rgb(18,19,48)" stroke-opacity="1" stroke-width="7" d=" M-179,-9 C-179,-77 -131.41299438476562,-172 -8.887999534606934,-172 C116.80599975585938,-172 159,-74.44999694824219 159,-8.149999618530273"></path></g><g opacity="1" transform="matrix(0.8999999761581421,0,0,0.8999999761581421,-179.25,-7.25)"><path class="primary" fill="rgb(74,179,252)" fill-opacity="1" d=" M17.5,-16.944000244140625 C17.5,-16.944000244140625 -16.944000244140625,-16.944000244140625 -16.944000244140625,-16.944000244140625 C-16.944000244140625,-16.944000244140625 -16.944000244140625,17.5 -16.944000244140625,17.5 C-16.944000244140625,17.5 17.5,17.5 17.5,17.5 C17.5,17.5 17.5,-16.944000244140625 17.5,-16.944000244140625z"></path><path stroke-linecap="round" stroke-linejoin="round" fill-opacity="0" class="primary" stroke="rgb(74,179,252)" stroke-opacity="1" stroke-width="7" d=" M17.5,-16.944000244140625 C17.5,-16.944000244140625 -16.944000244140625,-16.944000244140625 -16.944000244140625,-16.944000244140625 C-16.944000244140625,-16.944000244140625 -16.944000244140625,17.5 -16.944000244140625,17.5 C-16.944000244140625,17.5 17.5,17.5 17.5,17.5 C17.5,17.5 17.5,-16.944000244140625 17.5,-16.944000244140625z"></path><path class="primary" fill="rgb(74,179,252)" fill-opacity="1" d=" M17.5,-16.944000244140625 C17.5,-16.944000244140625 -16.944000244140625,-16.944000244140625 -16.944000244140625,-16.944000244140625 C-16.944000244140625,-16.944000244140625 -16.944000244140625,17.5 -16.944000244140625,17.5 C-16.944000244140625,17.5 17.5,17.5 17.5,17.5 C17.5,17.5 17.5,-16.944000244140625 17.5,-16.944000244140625z"></path></g><g opacity="1" transform="matrix(0.8999999761581421,0,0,0.8999999761581421,158.25,-7.25)"><path class="primary" fill="rgb(74,179,252)" fill-opacity="1" d=" M18.055999755859375,-17.222000122070312 C18.055999755859375,-17.222000122070312 -16.388999938964844,-17.222000122070312 -16.388999938964844,-17.222000122070312 C-16.388999938964844,-17.222000122070312 -16.388999938964844,17.222000122070312 -16.388999938964844,17.222000122070312 C-16.388999938964844,17.222000122070312 18.055999755859375,17.222000122070312 18.055999755859375,17.222000122070312 C18.055999755859375,17.222000122070312 18.055999755859375,-17.222000122070312 18.055999755859375,-17.222000122070312z"></path><path stroke-linecap="round" stroke-linejoin="round" fill-opacity="0" class="primary" stroke="rgb(74,179,252)" stroke-opacity="1" stroke-width="7" d=" M18.055999755859375,-17.222000122070312 C18.055999755859375,-17.222000122070312 -16.388999938964844,-17.222000122070312 -16.388999938964844,-17.222000122070312 C-16.388999938964844,-17.222000122070312 -16.388999938964844,17.222000122070312 -16.388999938964844,17.222000122070312 C-16.388999938964844,17.222000122070312 18.055999755859375,17.222000122070312 18.055999755859375,17.222000122070312 C18.055999755859375,17.222000122070312 18.055999755859375,-17.222000122070312 18.055999755859375,-17.222000122070312z"></path></g><g opacity="1" transform="matrix(1,0,0,1,-9.25,-172.25)"><path class="primary" fill="rgb(74,179,252)" fill-opacity="1" d=" M-144.75,-8 C-144.75,-8 -160.25,-8 -160.25,-8 C-160.25,-8 -160.25,7.5 -160.25,7.5 C-160.25,7.5 -144.75,7.5 -144.75,7.5 C-144.75,7.5 -144.75,-8 -144.75,-8z M160.25,-8 C160.25,-8 144.75,-8 144.75,-8 C144.75,-8 144.75,7.5 144.75,7.5 C144.75,7.5 160.25,7.5 160.25,7.5 C160.25,7.5 160.25,-8 160.25,-8z M-152.75,0.25 C-152.75,0.25 153.75,0.25 153.75,0.25 M15.25,-15.25 C15.25,-15.25 -15.25,-15.25 -15.25,-15.25 C-15.25,-15.25 -15.25,15.25 -15.25,15.25 C-15.25,15.25 15.25,15.25 15.25,15.25 C15.25,15.25 15.25,-15.25 15.25,-15.25z"></path><path stroke-linecap="round" stroke-linejoin="round" fill-opacity="0" class="primary" stroke="rgb(74,179,252)" stroke-opacity="1" stroke-width="7" d=" M-144.75,-8 C-144.75,-8 -160.25,-8 -160.25,-8 C-160.25,-8 -160.25,7.5 -160.25,7.5 C-160.25,7.5 -144.75,7.5 -144.75,7.5 C-144.75,7.5 -144.75,-8 -144.75,-8z M160.25,-8 C160.25,-8 144.75,-8 144.75,-8 C144.75,-8 144.75,7.5 144.75,7.5 C144.75,7.5 160.25,7.5 160.25,7.5 C160.25,7.5 160.25,-8 160.25,-8z M-152.75,0.25 C-152.75,0.25 153.75,0.25 153.75,0.25 M15.25,-15.25 C15.25,-15.25 -15.25,-15.25 -15.25,-15.25 C-15.25,-15.25 -15.25,15.25 -15.25,15.25 C-15.25,15.25 15.25,15.25 15.25,15.25 C15.25,15.25 15.25,-15.25 15.25,-15.25z"></path><path class="primary" fill="rgb(74,179,252)" fill-opacity="1" d=" M15.25,-15.25 C15.25,-15.25 -15.25,-15.25 -15.25,-15.25 C-15.25,-15.25 -15.25,15.25 -15.25,15.25 C-15.25,15.25 15.25,15.25 15.25,15.25 C15.25,15.25 15.25,-15.25 15.25,-15.25z"></path></g></g><g transform="matrix(1,-0.00000497857945447322,0.00000497857945447322,1,215.620361328125,213.88299560546875)" opacity="1" style="display: block;"><g opacity="1" transform="matrix(1,0,0,1,0,0)"><g opacity="1" transform="matrix(1,0,0,1,0,0)"><path class="quaternary" fill="rgb(241,75,0)" fill-opacity="1" d=" M48.5,89 C48.5,89 48.5,113.5 48.5,113.5 C48.5,115.15699768066406 47.15700149536133,116.5 45.5,116.5 C45.5,116.5 41.5,116.5 41.5,116.5 C41.5,116.5 41.5,164 41.5,164 C41.5,165.65699768066406 40.15700149536133,167 38.5,167 C38.5,167 -36.5,167 -36.5,167 C-38.15700149536133,167 -39.5,165.65699768066406 -39.5,164 C-39.5,164 -39.5,116.5 -39.5,116.5 C-39.5,116.5 -46.5,116.5 -46.5,116.5 C-48.15700149536133,116.5 -49.5,115.15699768066406 -49.5,113.5 C-49.5,113.5 -49.5,89 -49.5,89 C-49.5,87.34300231933594 -48.15700149536133,86 -46.5,86 C-46.5,86 45.5,86 45.5,86 C47.15700149536133,86 48.5,87.34300231933594 48.5,89z"></path></g><g opacity="0.5" transform="matrix(1,0,0,1,0,0)" style="mix-blend-mode: multiply;"><path class="quaternary" fill="rgb(241,75,0)" fill-opacity="1" d=" M41.50199890136719,116.4990005493164 C41.50199890136719,116.4990005493164 -7.019000053405762,137.58599853515625 -7.019000053405762,137.58599853515625 C-7.019000053405762,137.58599853515625 -39.49800109863281,150.6300048828125 -39.49800109863281,150.6300048828125 C-39.49800109863281,150.6300048828125 -39.49800109863281,116.4990005493164 -39.49800109863281,116.4990005493164"></path></g><g opacity="1" transform="matrix(1,0,0,1,0,0)"><path class="tertiary" fill="rgb(255,198,56)" fill-opacity="1" d=" M60.595001220703125,18.829999923706055 C60.595001220703125,18.829999923706055 40.150001525878906,86 40.150001525878906,86 C40.150001525878906,86 -39.13999938964844,86 -39.13999938964844,86 C-39.13999938964844,86 -58.130001068115234,17.82699966430664 -58.130001068115234,17.82699966430664 C-58.3650016784668,16.985000610351562 -58.220001220703125,16.082000732421875 -57.73400115966797,15.354999542236328 C-57.73400115966797,15.354999542236328 2,-74 2,-74 C2,-74 60.24599838256836,16.33099937438965 60.24599838256836,16.33099937438965 C60.7239990234375,17.07200050354004 60.85200119018555,17.986000061035156 60.595001220703125,18.829999923706055z"></path></g><g opacity="0.5" transform="matrix(1,0,0,1,0,0)" style="mix-blend-mode: multiply;"><path class="tertiary" fill="rgb(255,198,56)" fill-opacity="1" d=" M1.25,17.1299991607666 C1.25,17.1299991607666 1.25,86 1.25,86 C1.25,86 -39.13999938964844,86 -39.13999938964844,86 C-39.13999938964844,86 -58.130001068115234,17.82699966430664 -58.130001068115234,17.82699966430664 C-58.3650016784668,16.985000610351562 -58.220001220703125,16.082000732421875 -57.73400115966797,15.354999542236328 C-57.73400115966797,15.354999542236328 2,-74 2,-74 C2,-74 1.25,17.1299991607666 1.25,17.1299991607666z"></path></g></g></g><g transform="matrix(1,-0.00000497857945447322,0.00000497857945447322,1,226.00083923339844,310.99993896484375)" opacity="1" style="display: block;"><g opacity="1" transform="matrix(1,0,0,1,0,-1)"><path stroke-linecap="round" stroke-linejoin="round" fill-opacity="0" class="secondary" stroke="rgb(18,19,48)" stroke-opacity="1" stroke-width="7" d=" M-8.5,-169.5 C-8.5,-169.5 -69,-79 -69,-79 C-69,-79 -49.5,-9 -49.5,-9 C-49.5,-9 29.5,-9 29.5,-9 C29.5,-9 50.5,-78 50.5,-78 C50.5,-78 -8.5,-169.5 -8.5,-169.5z M-8.5,-169 C-8.5,-169 -8.5,-69 -8.5,-69"></path></g><g opacity="1" transform="matrix(1,0,0,1,-8.75,-69.25)"><path class="secondary" fill="rgb(18,19,48)" fill-opacity="1" d=" M0,-4.75 C-2.622999906539917,-4.75 -4.75,-2.622999906539917 -4.75,0 C-4.75,2.622999906539917 -2.622999906539917,4.75 0,4.75 C2.622999906539917,4.75 4.75,2.622999906539917 4.75,0 C4.75,-2.622999906539917 2.622999906539917,-4.75 0,-4.75z"></path><path stroke-linecap="butt" stroke-linejoin="miter" fill-opacity="0" stroke-miterlimit="4" class="secondary" stroke="rgb(18,19,48)" stroke-opacity="1" stroke-width="7" d=" M0,-4.75 C-2.622999906539917,-4.75 -4.75,-2.622999906539917 -4.75,0 C-4.75,2.622999906539917 -2.622999906539917,4.75 0,4.75 C2.622999906539917,4.75 4.75,2.622999906539917 4.75,0 C4.75,-2.622999906539917 2.622999906539917,-4.75 0,-4.75z"></path></g><g opacity="1" transform="matrix(1,0,0,1,-11,4.75)"><path stroke-linecap="round" stroke-linejoin="round" fill-opacity="0" class="secondary" stroke="rgb(18,19,48)" stroke-opacity="1" stroke-width="7" d=" M49,-15.25 C49,-15.25 -49,-15.25 -49,-15.25 C-49,-15.25 -49,15.25 -49,15.25 C-49,15.25 49,15.25 49,15.25 C49,15.25 49,-15.25 49,-15.25z"></path></g><g opacity="1" transform="matrix(1,0,0,1,-9.5,45.25)"><path stroke-linecap="round" stroke-linejoin="round" fill-opacity="0" class="secondary" stroke="rgb(18,19,48)" stroke-opacity="1" stroke-width="7" d=" M40.5,-25.25 C40.5,-25.25 -40.5,-25.25 -40.5,-25.25 C-40.5,-25.25 -40.5,25.25 -40.5,25.25 C-40.5,25.25 40.5,25.25 40.5,25.25 C40.5,25.25 40.5,-25.25 40.5,-25.25z"></path></g></g></g></g></svg>