<svg xmlns="http://www.w3.org/2000/svg" xmlns:xlink="http://www.w3.org/1999/xlink" viewBox="0 0 430 430" width="430" height="430" preserveAspectRatio="xMidYMid meet" style="width: 100%; height: 100%; transform: translate3d(0px, 0px, 0px); content-visibility: visible;"><defs><clipPath id="__lottie_element_59"><rect width="430" height="430" x="0" y="0"></rect></clipPath><clipPath id="__lottie_element_61"><path d="M0,0 L430,0 L430,430 L0,430z"></path></clipPath><g id="__lottie_element_77"><g transform="matrix(-1,0,0,-1,215,248.36500549316406)" opacity="1" style="display: block;"><g opacity="1" transform="matrix(1,0,0,1,0,0)"><path fill="rgb(255,5,5)" fill-opacity="1" d=" M-31.639999389648438,62.95500183105469 C-31.639999389648438,62.95500183105469 -8.510000228881836,62.95500183105469 -8.510000228881836,62.95500183105469 C-8.079999923706055,62.95500183105469 -7.690000057220459,62.67499923706055 -7.559999942779541,62.26499938964844 C-7.559999942779541,62.26499938964844 32.59000015258789,-61.64500045776367 32.59000015258789,-61.64500045776367 C32.79999923706055,-62.29499816894531 32.31999969482422,-62.95500183105469 31.639999389648438,-62.95500183105469 C31.639999389648438,-62.95500183105469 8.510000228881836,-62.95500183105469 8.510000228881836,-62.95500183105469 C8.079999923706055,-62.95500183105469 7.690000057220459,-62.67499923706055 7.559999942779541,-62.26499938964844 C7.559999942779541,-62.26499938964844 -32.59000015258789,61.64500045776367 -32.59000015258789,61.64500045776367 C-32.79999923706055,62.29499816894531 -32.31999969482422,62.95500183105469 -31.639999389648438,62.95500183105469z"></path></g></g></g><mask id="__lottie_element_77_1"><use xmlns:ns1="http://www.w3.org/1999/xlink" ns1:href="#__lottie_element_77"></use></mask></defs><g clip-path="url(#__lottie_element_59)"><g clip-path="url(#__lottie_element_61)" transform="matrix(1,0,0,1,0,0)" opacity="1" style="display: block;"><g transform="matrix(1,0,0,1,215,215)" opacity="1" style="display: block;"><g opacity="1" transform="matrix(1,0,0,1,0,0)"><path class="tertiary" fill="rgb(235,230,238)" fill-opacity="1" d=" M137.7100067138672,-160.1199951171875 C137.7100067138672,-160.1199951171875 -137.7100067138672,-160.1199951171875 -137.7100067138672,-160.1199951171875 C-150.08700561523438,-160.1199951171875 -160.1199951171875,-150.08700561523438 -160.1199951171875,-137.7100067138672 C-160.1199951171875,-137.7100067138672 -160.1199951171875,137.7100067138672 -160.1199951171875,137.7100067138672 C-160.1199951171875,150.08700561523438 -150.08700561523438,160.1199951171875 -137.7100067138672,160.1199951171875 C-137.7100067138672,160.1199951171875 137.7100067138672,160.1199951171875 137.7100067138672,160.1199951171875 C150.08700561523438,160.1199951171875 160.1199951171875,150.08700561523438 160.1199951171875,137.7100067138672 C160.1199951171875,137.7100067138672 160.1199951171875,-137.7100067138672 160.1199951171875,-137.7100067138672 C160.1199951171875,-150.08700561523438 150.08700561523438,-160.1199951171875 137.7100067138672,-160.1199951171875z"></path></g><g opacity="1" transform="matrix(1,0,0,1,0,-134.75)"><path class="secondary" fill="rgb(57,51,70)" fill-opacity="1" d=" M160.11000061035156,25.704999923706055 C160.11000061035156,25.704999923706055 160.11000061035156,-3.2950000762939453 160.11000061035156,-3.2950000762939453 C160.11000061035156,-3.2950000762939453 160.11000061035156,-3.2950000762939453 160.11000061035156,-3.2950000762939453 C160.11099243164062,-6.236999988555908 159.5330047607422,-9.149999618530273 158.40899658203125,-11.868000030517578 C157.28500366210938,-14.586000442504883 155.63499450683594,-17.055999755859375 153.55599975585938,-19.136999130249023 C151.4770050048828,-21.218000411987305 149.00799560546875,-22.868999481201172 146.29100036621094,-23.996000289916992 C143.57400512695312,-25.12299919128418 140.66200256347656,-25.70400047302246 137.72000122070312,-25.704999923706055 C137.72000122070312,-25.704999923706055 -137.7100067138672,-25.704999923706055 -137.7100067138672,-25.704999923706055 C-140.65199279785156,-25.704999923706055 -143.5659942626953,-25.125 -146.28399658203125,-23.999000549316406 C-149.0019989013672,-22.87299919128418 -151.47300720214844,-21.222000122070312 -153.55299377441406,-19.141000747680664 C-155.63299560546875,-17.059999465942383 -157.2830047607422,-14.58899974822998 -158.4080047607422,-11.869999885559082 C-159.5330047607422,-9.151000022888184 -160.11099243164062,-6.236999988555908 -160.11000061035156,-3.2950000762939453 C-160.11000061035156,-3.2950000762939453 -160.11000061035156,25.704999923706055 -160.11000061035156,25.704999923706055 C-160.11000061035156,25.704999923706055 160.11000061035156,25.704999923706055 160.11000061035156,25.704999923706055z"></path></g><g opacity="1" transform="matrix(1,0,0,1,-72.06199645996094,-134.43800354003906)"><path stroke-linecap="round" stroke-linejoin="round" fill-opacity="0" class="quaternary" stroke="rgb(226,144,4)" stroke-opacity="1" stroke-width="15" d=" M0.06499999761581421,0 C0.06499999761581421,0 -0.06499999761581421,0 -0.06499999761581421,0"></path></g><g opacity="1" transform="matrix(1,0,0,1,-100.18800354003906,-134.43800354003906)"><path stroke-linecap="round" stroke-linejoin="round" fill-opacity="0" class="quinary" stroke="rgb(255,198,56)" stroke-opacity="1" stroke-width="15" d=" M0.06499999761581421,0 C0.06499999761581421,0 -0.06499999761581421,0 -0.06499999761581421,0"></path></g><g opacity="1" transform="matrix(1,0,0,1,-128.18800354003906,-134.43800354003906)"><path stroke-linecap="round" stroke-linejoin="round" fill-opacity="0" class="senary" stroke="rgb(241,75,0)" stroke-opacity="1" stroke-width="15" d=" M0.06499999761581421,0 C0.06499999761581421,0 -0.06499999761581421,0 -0.06499999761581421,0"></path></g></g><g transform="matrix(-1,0,0,-1,215,248.36500549316406)" opacity="1" style="display: block;"><g opacity="1" transform="matrix(1,0,0,1,0,0)"><path class="quaternary" fill="rgb(226,144,4)" fill-opacity="1" d=" M-31.639999389648438,62.95500183105469 C-31.639999389648438,62.95500183105469 -8.510000228881836,62.95500183105469 -8.510000228881836,62.95500183105469 C-8.079999923706055,62.95500183105469 -7.690000057220459,62.67499923706055 -7.559999942779541,62.26499938964844 C-7.559999942779541,62.26499938964844 32.59000015258789,-61.64500045776367 32.59000015258789,-61.64500045776367 C32.79999923706055,-62.29499816894531 32.31999969482422,-62.95500183105469 31.639999389648438,-62.95500183105469 C31.639999389648438,-62.95500183105469 8.510000228881836,-62.95500183105469 8.510000228881836,-62.95500183105469 C8.079999923706055,-62.95500183105469 7.690000057220459,-62.67499923706055 7.559999942779541,-62.26499938964844 C7.559999942779541,-62.26499938964844 -32.59000015258789,61.64500045776367 -32.59000015258789,61.64500045776367 C-32.79999923706055,62.29499816894531 -32.31999969482422,62.95500183105469 -31.639999389648438,62.95500183105469z"></path></g></g><g mask="url(#__lottie_element_77_1)" style="mix-blend-mode: multiply; display: block;"><g transform="matrix(1,0,0,1,215,248.35499572753906)" opacity="1"><g opacity="0.5" transform="matrix(1,0,0,1,-6.25,0)"><path class="quaternary" fill="rgb(226,144,4)" fill-opacity="1" d=" M-13.854999542236328,62.2599983215332 C-13.854999542236328,62.2599983215332 26.295000076293945,-61.650001525878906 26.295000076293945,-61.650001525878906 C26.5049991607666,-62.290000915527344 31.649999618530273,-78.32499694824219 30.969999313354492,-78.32499694824219 C30.969999313354492,-78.32499694824219 -64.70500183105469,-63.23500061035156 -64.70500183105469,-63.23500061035156 C-65.13500213623047,-63.23500061035156 -70.0250015258789,62.85499954223633 -69.34500122070312,62.85499954223633 C-69.34500122070312,62.85499954223633 -17.43000030517578,74.44999694824219 -17.43000030517578,74.44999694824219 C-17,74.44999694824219 -13.984999656677246,62.66999816894531 -13.854999542236328,62.2599983215332z"></path></g></g></g><g transform="matrix(1,0,0,1,299.03399658203125,248.375)" opacity="1" style="display: block;"><g opacity="1" transform="matrix(1,0,0,1,0,0)"><path class="quaternary" fill="rgb(226,144,4)" fill-opacity="1" d=" M-34.92399978637695,-26.71500015258789 C-34.92399978637695,-26.71500015258789 -34.92399978637695,-55.04499816894531 -34.92399978637695,-55.04499816894531 C-34.92399978637695,-55.04499816894531 -34.92399978637695,-55.025001525878906 -34.92399978637695,-55.025001525878906 C-34.92399978637695,-55.8650016784668 -33.944000244140625,-56.334999084472656 -33.29399871826172,-55.80500030517578 C-33.29399871826172,-55.80500030517578 34.555999755859375,-0.7749999761581421 34.555999755859375,-0.7749999761581421 C35.04600143432617,-0.375 35.04600143432617,0.375 34.555999755859375,0.7749999761581421 C34.555999755859375,0.7749999761581421 -33.29399871826172,55.80500030517578 -33.29399871826172,55.80500030517578 C-33.944000244140625,56.334999084472656 -34.92399978637695,55.8650016784668 -34.92399978637695,55.025001525878906 C-34.92399978637695,55.025001525878906 -34.92399978637695,26.69499969482422 -34.92399978637695,26.69499969482422 C-34.92399978637695,26.395000457763672 -34.784000396728516,26.104999542236328 -34.55400085449219,25.915000915527344 C-34.55400085449219,25.915000915527344 -3.5439999103546143,0.7649999856948853 -3.5439999103546143,0.7649999856948853 C-3.053999900817871,0.36500000953674316 -3.053999900817871,-0.38499999046325684 -3.5439999103546143,-0.7850000262260437 C-3.5439999103546143,-0.7850000262260437 -34.55400085449219,-25.934999465942383 -34.55400085449219,-25.934999465942383 C-34.784000396728516,-26.125 -34.92399978637695,-26.415000915527344 -34.92399978637695,-26.71500015258789z"></path></g></g><g transform="matrix(1,0,0,1,131.21600341796875,248.34500122070312)" opacity="1" style="display: block;"><g opacity="1" transform="matrix(1,0,0,1,0,0)"><path class="quaternary" fill="rgb(226,144,4)" fill-opacity="1" d=" M34.55400085449219,-25.915000915527344 C34.55400085449219,-25.915000915527344 3.5439999103546143,-0.7649999856948853 3.5439999103546143,-0.7649999856948853 C3.5439999103546143,-0.7649999856948853 3.5439999103546143,-0.7850000262260437 3.5439999103546143,-0.7850000262260437 C3.053999900817871,-0.38499999046325684 3.053999900817871,0.36500000953674316 3.5439999103546143,0.7649999856948853 C3.5439999103546143,0.7649999856948853 34.55400085449219,25.915000915527344 34.55400085449219,25.915000915527344 C34.784000396728516,26.104999542236328 34.92399978637695,26.395000457763672 34.92399978637695,26.69499969482422 C34.92399978637695,26.69499969482422 34.92399978637695,55.025001525878906 34.92399978637695,55.025001525878906 C34.92399978637695,55.8650016784668 33.944000244140625,56.334999084472656 33.29399871826172,55.80500030517578 C33.29399871826172,55.80500030517578 -34.555999755859375,0.7749999761581421 -34.555999755859375,0.7749999761581421 C-35.04600143432617,0.375 -35.04600143432617,-0.375 -34.555999755859375,-0.7749999761581421 C-34.555999755859375,-0.7749999761581421 33.29399871826172,-55.80500030517578 33.29399871826172,-55.80500030517578 C33.944000244140625,-56.334999084472656 34.92399978637695,-55.8650016784668 34.92399978637695,-55.025001525878906 C34.92399978637695,-55.025001525878906 34.92399978637695,-26.69499969482422 34.92399978637695,-26.69499969482422 C34.92399978637695,-26.395000457763672 34.784000396728516,-26.104999542236328 34.55400085449219,-25.915000915527344z"></path><path class="quaternary" fill="rgb(226,144,4)" fill-opacity="0.5" d=" M34.55400085449219,-25.915000915527344 C34.55400085449219,-25.915000915527344 3.5439999103546143,-0.7649999856948853 3.5439999103546143,-0.7649999856948853 C3.5439999103546143,-0.7649999856948853 3.5439999103546143,-0.7850000262260437 3.5439999103546143,-0.7850000262260437 C3.053999900817871,-0.38499999046325684 3.053999900817871,0.36500000953674316 3.5439999103546143,0.7649999856948853 C3.5439999103546143,0.7649999856948853 34.55400085449219,25.915000915527344 34.55400085449219,25.915000915527344 C34.784000396728516,26.104999542236328 34.92399978637695,26.395000457763672 34.92399978637695,26.69499969482422 C34.92399978637695,26.69499969482422 34.92399978637695,55.025001525878906 34.92399978637695,55.025001525878906 C34.92399978637695,55.8650016784668 33.944000244140625,56.334999084472656 33.29399871826172,55.80500030517578 C33.29399871826172,55.80500030517578 -34.555999755859375,0.7749999761581421 -34.555999755859375,0.7749999761581421 C-35.04600143432617,0.375 -35.04600143432617,-0.375 -34.555999755859375,-0.7749999761581421 C-34.555999755859375,-0.7749999761581421 33.29399871826172,-55.80500030517578 33.29399871826172,-55.80500030517578 C33.944000244140625,-56.334999084472656 34.92399978637695,-55.8650016784668 34.92399978637695,-55.025001525878906 C34.92399978637695,-55.025001525878906 34.92399978637695,-26.69499969482422 34.92399978637695,-26.69499969482422 C34.92399978637695,-26.395000457763672 34.784000396728516,-26.104999542236328 34.55400085449219,-25.915000915527344z" style="mix-blend-mode: multiply;"></path></g></g><g transform="matrix(-1,0,0,-1,215,248.36500549316406)" opacity="1" style="display: block;"><g opacity="1" transform="matrix(1,0,0,1,0,0)"><path stroke-linecap="round" stroke-linejoin="round" fill-opacity="0" class="primary" stroke="rgb(9,45,92)" stroke-opacity="1" stroke-width="7" d=" M-31.639999389648438,62.95500183105469 C-31.639999389648438,62.95500183105469 -8.510000228881836,62.95500183105469 -8.510000228881836,62.95500183105469 C-8.079999923706055,62.95500183105469 -7.690000057220459,62.67499923706055 -7.559999942779541,62.26499938964844 C-7.559999942779541,62.26499938964844 32.59000015258789,-61.64500045776367 32.59000015258789,-61.64500045776367 C32.79999923706055,-62.29499816894531 32.31999969482422,-62.95500183105469 31.639999389648438,-62.95500183105469 C31.639999389648438,-62.95500183105469 8.510000228881836,-62.95500183105469 8.510000228881836,-62.95500183105469 C8.079999923706055,-62.95500183105469 7.690000057220459,-62.67499923706055 7.559999942779541,-62.26499938964844 C7.559999942779541,-62.26499938964844 -32.59000015258789,61.64500045776367 -32.59000015258789,61.64500045776367 C-32.79999923706055,62.29499816894531 -32.31999969482422,62.95500183105469 -31.639999389648438,62.95500183105469z"></path></g></g><g transform="matrix(1,0,0,1,299.03399658203125,248.375)" opacity="1" style="display: block;"><g opacity="1" transform="matrix(1,0,0,1,0,0)"><path stroke-linecap="round" stroke-linejoin="round" fill-opacity="0" class="primary" stroke="rgb(9,45,92)" stroke-opacity="1" stroke-width="7" d=" M-34.92399978637695,-26.71500015258789 C-34.92399978637695,-26.71500015258789 -34.92399978637695,-55.04499816894531 -34.92399978637695,-55.04499816894531 C-34.92399978637695,-55.04499816894531 -34.92399978637695,-55.025001525878906 -34.92399978637695,-55.025001525878906 C-34.92399978637695,-55.8650016784668 -33.944000244140625,-56.334999084472656 -33.29399871826172,-55.80500030517578 C-33.29399871826172,-55.80500030517578 34.555999755859375,-0.7749999761581421 34.555999755859375,-0.7749999761581421 C35.04600143432617,-0.375 35.04600143432617,0.375 34.555999755859375,0.7749999761581421 C34.555999755859375,0.7749999761581421 -33.29399871826172,55.80500030517578 -33.29399871826172,55.80500030517578 C-33.944000244140625,56.334999084472656 -34.92399978637695,55.8650016784668 -34.92399978637695,55.025001525878906 C-34.92399978637695,55.025001525878906 -34.92399978637695,26.69499969482422 -34.92399978637695,26.69499969482422 C-34.92399978637695,26.395000457763672 -34.784000396728516,26.104999542236328 -34.55400085449219,25.915000915527344 C-34.55400085449219,25.915000915527344 -3.5439999103546143,0.7649999856948853 -3.5439999103546143,0.7649999856948853 C-3.053999900817871,0.36500000953674316 -3.053999900817871,-0.38499999046325684 -3.5439999103546143,-0.7850000262260437 C-3.5439999103546143,-0.7850000262260437 -34.55400085449219,-25.934999465942383 -34.55400085449219,-25.934999465942383 C-34.784000396728516,-26.125 -34.92399978637695,-26.415000915527344 -34.92399978637695,-26.71500015258789z"></path></g></g><g transform="matrix(1,0,0,1,131.21600341796875,248.34500122070312)" opacity="1" style="display: block;"><g opacity="1" transform="matrix(1,0,0,1,0,0)"><path stroke-linecap="round" stroke-linejoin="round" fill-opacity="0" class="primary" stroke="rgb(9,45,92)" stroke-opacity="1" stroke-width="7" d=" M34.55400085449219,-25.915000915527344 C34.55400085449219,-25.915000915527344 3.5439999103546143,-0.7649999856948853 3.5439999103546143,-0.7649999856948853 C3.5439999103546143,-0.7649999856948853 3.5439999103546143,-0.7850000262260437 3.5439999103546143,-0.7850000262260437 C3.053999900817871,-0.38499999046325684 3.053999900817871,0.36500000953674316 3.5439999103546143,0.7649999856948853 C3.5439999103546143,0.7649999856948853 34.55400085449219,25.915000915527344 34.55400085449219,25.915000915527344 C34.784000396728516,26.104999542236328 34.92399978637695,26.395000457763672 34.92399978637695,26.69499969482422 C34.92399978637695,26.69499969482422 34.92399978637695,55.025001525878906 34.92399978637695,55.025001525878906 C34.92399978637695,55.8650016784668 33.944000244140625,56.334999084472656 33.29399871826172,55.80500030517578 C33.29399871826172,55.80500030517578 -34.555999755859375,0.7749999761581421 -34.555999755859375,0.7749999761581421 C-35.04600143432617,0.375 -35.04600143432617,-0.375 -34.555999755859375,-0.7749999761581421 C-34.555999755859375,-0.7749999761581421 33.29399871826172,-55.80500030517578 33.29399871826172,-55.80500030517578 C33.944000244140625,-56.334999084472656 34.92399978637695,-55.8650016784668 34.92399978637695,-55.025001525878906 C34.92399978637695,-55.025001525878906 34.92399978637695,-26.69499969482422 34.92399978637695,-26.69499969482422 C34.92399978637695,-26.395000457763672 34.784000396728516,-26.104999542236328 34.55400085449219,-25.915000915527344z"></path></g></g><g transform="matrix(-1,0,0,-1,215,248.36000061035156)" opacity="1" style="display: block;"></g><g transform="matrix(1,0,0,1,303.3999938964844,248.36000061035156)" opacity="1" style="display: block;"></g><g transform="matrix(1,0,0,1,126.5999984741211,248.36000061035156)" opacity="1" style="display: block;"></g><g transform="matrix(1,0,0,1,215,215)" opacity="1" style="display: block;"><path stroke-linecap="round" stroke-linejoin="round" fill-opacity="0" class="primary" stroke="rgb(9,45,92)" stroke-opacity="1" stroke-width="7" d=" M137.7100067138672,-160.1199951171875 C137.7100067138672,-160.1199951171875 -137.7100067138672,-160.1199951171875 -137.7100067138672,-160.1199951171875 C-150.08700561523438,-160.1199951171875 -160.1199951171875,-150.08700561523438 -160.1199951171875,-137.7100067138672 C-160.1199951171875,-137.7100067138672 -160.1199951171875,137.7100067138672 -160.1199951171875,137.7100067138672 C-160.1199951171875,150.08700561523438 -150.08700561523438,160.1199951171875 -137.7100067138672,160.1199951171875 C-137.7100067138672,160.1199951171875 137.7100067138672,160.1199951171875 137.7100067138672,160.1199951171875 C150.08700561523438,160.1199951171875 160.1199951171875,150.08700561523438 160.1199951171875,137.7100067138672 C160.1199951171875,137.7100067138672 160.1199951171875,-137.7100067138672 160.1199951171875,-137.7100067138672 C160.1199951171875,-150.08700561523438 150.08700561523438,-160.1199951171875 137.7100067138672,-160.1199951171875z M160.11,-109.05 C160.11,-109.05 160.11,-138.05 160.11,-138.05 C160.11,-138.05 160.11,-138.05 160.11,-138.05 C160.11,-140.99 159.53,-143.9 158.41,-146.62 C157.29,-149.34 155.63,-151.81 153.56,-153.89 C151.48,-155.97 149.01,-157.62 146.29,-158.75 C143.57,-159.87 140.66,-160.45 137.72,-160.45 C137.72,-160.45 -137.71,-160.45 -137.71,-160.45 C-140.65,-160.45 -143.57,-159.87 -146.28,-158.75 C-149,-157.62 -151.47,-155.97 -153.55,-153.89 C-155.63,-151.81 -157.28,-149.34 -158.41,-146.62 C-159.53,-143.9 -160.11,-140.99 -160.11,-138.05 C-160.11,-138.05 -160.11,-109.05 -160.11,-109.05 C-160.11,-109.05 160.11,-109.05 160.11,-109.05z"></path><g opacity="1" transform="matrix(1,0,0,1,0,0)"></g><g opacity="1" transform="matrix(1,0,0,1,0,-134.75)"></g></g></g></g></svg>